<?xml version="1.0" encoding="UTF-8"?>
<svg id="Layer_2" data-name="Layer 2" xmlns="http://www.w3.org/2000/svg" viewBox="0 0 266.92 69.18">
  <defs>
    <style>
      .cls-1 {
        fill: #fbb303;
      }

      .cls-1, .cls-2 {
        stroke-width: 0px;
      }

      .cls-2 {
        fill: #033156;
      }
    </style>
  </defs>
  <g id="Layer_1-2" data-name="Layer 1">
    <g>
      <path class="cls-2" d="M49.04,54.77V15.46h10.08v9.43l-.72-1.37c.87-3.31,2.29-5.56,4.29-6.73,1.99-1.17,4.36-1.76,7.09-1.76h2.3v9.36h-3.38c-2.64,0-4.78.8-6.41,2.41-1.63,1.61-2.45,3.88-2.45,6.8v21.17h-10.8Z"/>
      <path class="cls-2" d="M76.83,11.93V1.13h10.8v10.8h-10.8ZM76.83,54.77V15.46h10.8v39.31h-10.8Z"/>
      <path class="cls-2" d="M133.01,24.72c-1.78-3.1-4.17-5.56-7.2-7.39-3.02-1.82-6.41-2.73-10.15-2.73-2.88,0-5.44.54-7.67,1.62-1.74.84-3.19,1.95-4.35,3.33v-4.09h-10.08v53.72l8.28-3.29c1.52-.61,2.52-2.08,2.52-3.72v-10.42c1.09.99,2.35,1.79,3.78,2.41,2.27.99,4.76,1.48,7.45,1.48,3.84,0,7.27-.91,10.29-2.74,3.03-1.82,5.41-4.29,7.17-7.41,1.75-3.12,2.63-6.58,2.63-10.37s-.89-7.31-2.67-10.4ZM123.22,40.74c-.86,1.63-2.07,2.9-3.6,3.81-1.54.91-3.31,1.37-5.33,1.37s-3.63-.46-5.15-1.37c-1.51-.91-2.69-2.18-3.53-3.81-.83-1.64-1.25-3.51-1.25-5.62s.42-3.98,1.25-5.62c.84-1.63,2.02-2.9,3.53-3.81,1.52-.91,3.23-1.37,5.15-1.37,2.02,0,3.79.47,5.33,1.4,1.53.94,2.74,2.21,3.6,3.82.86,1.61,1.3,3.47,1.3,5.58s-.44,3.98-1.3,5.62Z"/>
      <path class="cls-2" d="M141.84,3.28c-1.52.61-2.52,2.08-2.52,3.72v47.5h10.8V0l-8.28,3.28Z"/>
      <path class="cls-2" d="M36.78,11.93v42.84h-10.8V18.93c0-1.64,1-3.11,2.52-3.72l8.28-3.28Z"/>
      <path class="cls-2" d="M175.23,55.64c-3.89,0-7.43-.89-10.62-2.66-3.19-1.78-5.74-4.21-7.63-7.31-1.9-3.1-2.84-6.61-2.84-10.55s.95-7.51,2.84-10.58c1.9-3.07,4.44-5.5,7.63-7.27,3.19-1.78,6.73-2.66,10.62-2.66s7.42.89,10.58,2.66c3.17,1.78,5.7,4.2,7.6,7.27,1.9,3.07,2.84,6.6,2.84,10.58s-.95,7.45-2.84,10.55c-1.9,3.1-4.43,5.53-7.6,7.31-3.17,1.78-6.7,2.66-10.58,2.66ZM175.23,45.92c1.97,0,3.68-.46,5.15-1.37,1.46-.91,2.62-2.18,3.46-3.82.84-1.63,1.26-3.5,1.26-5.62s-.42-3.97-1.26-5.58c-.84-1.61-1.99-2.88-3.46-3.82-1.46-.94-3.18-1.4-5.15-1.4s-3.7.47-5.18,1.4c-1.49.94-2.65,2.21-3.49,3.82-.84,1.61-1.26,3.47-1.26,5.58s.42,3.99,1.26,5.62c.84,1.63,2,2.91,3.49,3.82,1.49.91,3.21,1.37,5.18,1.37Z"/>
      <path class="cls-2" d="M199.9,54.77V15.46h10.08v9.43l-.72-1.37c.87-3.31,2.29-5.56,4.29-6.73,1.99-1.17,4.36-1.76,7.09-1.76h2.3v9.36h-3.38c-2.64,0-4.78.8-6.41,2.41-1.63,1.61-2.45,3.88-2.45,6.8v21.17h-10.8Z"/>
      <path class="cls-2" d="M245.89,55.64c-3.89,0-7.43-.89-10.62-2.66-3.19-1.78-5.74-4.21-7.63-7.31-1.9-3.1-2.84-6.61-2.84-10.55s.95-7.51,2.84-10.58c1.9-3.07,4.44-5.5,7.63-7.27,3.19-1.78,6.73-2.66,10.62-2.66s7.42.89,10.58,2.66c3.17,1.78,5.7,4.2,7.6,7.27,1.9,3.07,2.84,6.6,2.84,10.58s-.95,7.45-2.84,10.55c-1.9,3.1-4.43,5.53-7.6,7.31-3.17,1.78-6.7,2.66-10.58,2.66ZM245.89,45.92c1.97,0,3.68-.46,5.15-1.37,1.46-.91,2.62-2.18,3.46-3.82.84-1.63,1.26-3.5,1.26-5.62s-.42-3.97-1.26-5.58c-.84-1.61-1.99-2.88-3.46-3.82-1.46-.94-3.18-1.4-5.15-1.4s-3.7.47-5.18,1.4c-1.49.94-2.65,2.21-3.49,3.82-.84,1.61-1.26,3.47-1.26,5.58s.42,3.99,1.26,5.62c.84,1.63,2,2.91,3.49,3.82,1.49.91,3.21,1.37,5.18,1.37Z"/>
      <path class="cls-2" d="M3.29,9.41L0,1.13h29.71c1.64,0,3.11,1,3.72,2.52l3.29,8.28H7.01c-1.64,0-3.11-1-3.72-2.52Z"/>
      <path class="cls-1" d="M36.71,11.96V1.1c5.23,1.5,9.36,5.63,10.86,10.86h-10.86Z"/>
    </g>
  </g>
</svg>