<svg width="624" height="327" viewBox="0 0 624 327" fill="none" xmlns="http://www.w3.org/2000/svg">
<path d="M43.2969 109.29L0 0H390.989C412.571 0 431.917 13.1992 439.944 33.2621L483.241 142.552H92.2528C70.6701 142.552 51.3247 129.352 43.2969 109.29Z" fill="#D9D9D9"/>
<path d="M580.703 293.083L624 183.793H233.011C211.429 183.793 192.083 196.992 184.056 217.055L140.759 326.345H531.748C553.33 326.345 572.675 313.146 580.703 293.083Z" fill="#D9D9D9"/>
<path d="M140.759 326.345V184.69C72.9717 204.255 19.442 258.126 0.000171781 326.345H140.759Z" fill="#D9D9D9"/>
<path d="M483.241 142.552V0.896545C551.029 20.4622 604.558 74.3329 624 142.552H483.241Z" fill="#D9D9D9"/>
</svg>
