<svg width="384" height="300" viewBox="0 0 384 300" fill="none" xmlns="http://www.w3.org/2000/svg">
<rect width="384" height="300" fill="url(#paint0_linear_345_2)"/>
<path d="M155.267 158.751V141.704H159.638V145.793L159.326 145.199C159.703 143.764 160.319 142.788 161.186 142.281C162.049 141.773 163.077 141.518 164.261 141.518H165.258V145.577H163.792C162.647 145.577 161.719 145.923 161.012 146.622C160.306 147.32 159.95 148.304 159.95 149.57V158.751H155.267Z" fill="white"/>
<path d="M167.316 140.174V135.49H172V140.174H167.316ZM167.316 158.751V141.704H172V158.751H167.316Z" fill="white"/>
<path d="M191.679 145.72C190.907 144.375 189.871 143.309 188.557 142.515C187.247 141.726 185.777 141.331 184.155 141.331C182.906 141.331 181.796 141.565 180.829 142.034C180.074 142.398 179.446 142.879 178.942 143.478V141.704H174.571V165L178.162 163.573C178.821 163.309 179.255 162.671 179.255 161.96V157.441C179.727 157.871 180.274 158.217 180.894 158.486C181.878 158.916 182.958 159.128 184.125 159.128C185.79 159.128 187.277 158.733 188.587 157.94C189.901 157.151 190.933 156.08 191.696 154.727C192.455 153.374 192.837 151.873 192.837 150.23C192.837 148.586 192.451 147.06 191.679 145.72ZM187.433 152.667C187.06 153.374 186.536 153.924 185.872 154.319C185.204 154.714 184.437 154.913 183.561 154.913C182.685 154.913 181.987 154.714 181.328 154.319C180.673 153.924 180.161 153.374 179.797 152.667C179.437 151.956 179.255 151.145 179.255 150.23C179.255 149.315 179.437 148.504 179.797 147.792C180.161 147.086 180.673 146.535 181.328 146.14C181.987 145.746 182.728 145.546 183.561 145.546C184.437 145.546 185.204 145.75 185.872 146.153C186.536 146.561 187.06 147.112 187.433 147.81C187.806 148.508 187.997 149.315 187.997 150.23C187.997 151.145 187.806 151.956 187.433 152.667Z" fill="white"/>
<path d="M195.508 136.422C194.849 136.687 194.415 137.324 194.415 138.036V158.634H199.098V135L195.508 136.422Z" fill="white"/>
<path d="M149.95 140.173V158.751H145.267V143.209C145.267 142.498 145.7 141.86 146.359 141.596L149.95 140.173Z" fill="white"/>
<path d="M209.988 159.128C208.301 159.128 206.765 158.742 205.382 157.975C203.999 157.203 202.893 156.149 202.073 154.805C201.249 153.46 200.842 151.938 200.842 150.23C200.842 148.521 201.254 146.973 202.073 145.642C202.897 144.31 203.999 143.257 205.382 142.489C206.765 141.717 208.301 141.335 209.988 141.335C211.674 141.335 213.205 141.721 214.576 142.489C215.95 143.261 217.047 144.31 217.871 145.642C218.695 146.973 219.103 148.504 219.103 150.23C219.103 151.956 218.691 153.46 217.871 154.805C217.047 156.149 215.95 157.203 214.576 157.975C213.201 158.747 211.67 159.128 209.988 159.128ZM209.988 154.913C210.842 154.913 211.583 154.714 212.221 154.319C212.854 153.924 213.357 153.374 213.721 152.662C214.086 151.956 214.268 151.145 214.268 150.225C214.268 149.306 214.086 148.504 213.721 147.806C213.357 147.107 212.858 146.557 212.221 146.149C211.588 145.741 210.842 145.542 209.988 145.542C209.133 145.542 208.383 145.746 207.741 146.149C207.095 146.557 206.592 147.107 206.228 147.806C205.863 148.504 205.681 149.31 205.681 150.225C205.681 151.14 205.863 151.956 206.228 152.662C206.592 153.369 207.095 153.924 207.741 154.319C208.387 154.714 209.133 154.913 209.988 154.913Z" fill="white"/>
<path d="M220.686 158.751V141.704H225.057V145.793L224.745 145.199C225.122 143.764 225.738 142.788 226.605 142.281C227.468 141.773 228.496 141.518 229.679 141.518H230.677V145.577H229.211C228.066 145.577 227.138 145.923 226.431 146.622C225.725 147.32 225.369 148.304 225.369 149.57V158.751H220.686Z" fill="white"/>
<path d="M240.629 159.128C238.942 159.128 237.407 158.742 236.024 157.975C234.64 157.203 233.535 156.149 232.715 154.805C231.891 153.46 231.483 151.938 231.483 150.23C231.483 148.521 231.895 146.973 232.715 145.642C233.539 144.31 234.64 143.257 236.024 142.489C237.407 141.717 238.942 141.335 240.629 141.335C242.316 141.335 243.847 141.721 245.217 142.489C246.592 143.261 247.689 144.31 248.513 145.642C249.337 146.973 249.744 148.504 249.744 150.23C249.744 151.956 249.332 153.46 248.513 154.805C247.689 156.149 246.592 157.203 245.217 157.975C243.842 158.747 242.312 159.128 240.629 159.128ZM240.629 154.913C241.483 154.913 242.225 154.714 242.862 154.319C243.496 153.924 243.999 153.374 244.363 152.662C244.727 151.956 244.909 151.145 244.909 150.225C244.909 149.306 244.727 148.504 244.363 147.806C243.999 147.107 243.5 146.557 242.862 146.149C242.229 145.741 241.483 145.542 240.629 145.542C239.775 145.542 239.025 145.746 238.383 146.149C237.737 146.557 237.234 147.107 236.869 147.806C236.505 148.504 236.323 149.31 236.323 150.225C236.323 151.14 236.505 151.956 236.869 152.662C237.234 153.369 237.737 153.924 238.383 154.319C239.029 154.714 239.775 154.913 240.629 154.913Z" fill="white"/>
<path d="M135.427 139.081L134 135.49H146.884C147.595 135.49 148.232 135.924 148.497 136.583L149.924 140.174H137.04C136.329 140.174 135.691 139.74 135.427 139.081Z" fill="white"/>
<path d="M149.919 140.187V135.477C152.187 136.128 153.978 137.919 154.628 140.187H149.919Z" fill="#FBB303"/>
<defs>
<linearGradient id="paint0_linear_345_2" x1="192" y1="0" x2="192" y2="300" gradientUnits="userSpaceOnUse">
<stop offset="1" stop-color="#033156"/>
</linearGradient>
</defs>
</svg>
